<svg width="21" height="21" viewBox="0 0 21 21" fill="none" xmlns="http://www.w3.org/2000/svg">
<path d="M20.679 9.11772C20.679 9.42768 20.679 10.0476 20.679 10.6675C20.679 11.2874 20.679 11.5974 20.679 12.2173C20.679 13.4571 20.3704 14.387 19.7531 15.6269C19.1358 16.5567 18.5185 17.4866 17.5926 18.4165C16.6667 19.3464 15.7408 19.6563 14.5062 20.2762C13.2716 20.5862 12.0371 20.8962 10.4939 20.8962C8.95064 20.8962 7.71607 20.5862 6.48151 20.2762C5.24694 19.9663 4.32101 19.3464 3.39509 18.4165C2.46916 17.1767 1.85188 16.2468 1.23459 15.3169C0.925951 14.387 0.61731 13.1472 0.61731 11.9074C0.61731 11.5974 0.61731 10.9775 0.61731 10.3576C0.61731 9.73764 0.61731 9.42768 0.61731 8.80776C0.61731 7.56792 0.925952 6.63805 1.54324 5.39821C2.16052 4.46833 2.7778 3.53846 3.70373 2.60858C4.62966 1.6787 5.55558 1.05878 6.79015 0.748825C8.02472 0.438865 9.25929 0.128906 10.8025 0.128906C12.3457 0.128906 13.5803 0.438865 14.8148 0.748825C16.0494 1.05878 16.9753 1.6787 17.9013 2.60858C18.8272 3.53846 19.4445 4.15837 20.0618 5.39821C20.3704 6.63805 20.679 7.87788 20.679 9.11772ZM7.09879 11.5974C7.09879 12.5273 7.40743 13.1472 8.02472 13.7671C8.95064 14.387 9.56793 14.697 10.4939 14.697C11.4198 14.697 12.3457 14.387 12.963 13.7671C13.5803 13.1472 13.8889 12.5273 13.8889 11.5974C13.8889 11.2874 13.8889 10.6675 13.8889 10.3576C13.8889 9.73764 13.8889 9.42768 13.8889 9.11772C13.8889 8.18784 13.5803 7.56792 12.963 6.94801C12.3457 6.32809 11.4198 6.01813 10.4939 6.01813C9.56793 6.01813 8.642 6.32809 8.02472 6.94801C7.40743 7.56792 7.09879 8.18784 7.09879 9.11772C7.09879 9.42768 7.09879 10.0476 7.09879 10.3576C7.09879 10.9775 7.09879 11.2874 7.09879 11.5974Z" fill="white"/>
</svg>
