<svg width="31" height="21" viewBox="0 0 31 21" fill="none" xmlns="http://www.w3.org/2000/svg">
<path d="M30.6296 19.0365C30.6296 19.3465 30.6296 19.6564 30.321 19.6564C30.0124 19.9664 30.0123 19.9664 29.7037 19.9664H25.0741C24.7654 19.9664 24.4568 19.9664 24.4568 19.6564C24.1481 19.3465 24.1482 19.3465 24.1482 19.0365V9.73774C24.1482 8.4979 23.8395 7.56802 23.5309 6.94811C23.2222 6.32819 22.2963 6.01823 21.3704 6.01823C20.4444 6.01823 19.8272 6.32819 19.5185 6.94811C19.2099 7.56802 18.5926 8.4979 18.5926 9.73774V19.3465C18.5926 19.6564 18.5926 19.9664 18.284 19.9664C17.9753 20.2763 17.9753 20.2763 17.6667 20.2763H13.037C12.7284 20.2763 12.4198 20.2763 12.4198 19.9664C12.1111 19.6564 12.1111 19.6564 12.1111 19.3465V9.73774C12.1111 8.4979 11.8025 7.56802 11.4938 6.94811C11.1852 6.32819 10.2593 6.01823 9.33334 6.01823C8.40741 6.01823 7.79013 6.32819 7.48148 6.63815C7.17284 7.25807 6.8642 7.87798 6.8642 9.11782V18.7266C6.8642 19.0365 6.8642 19.3465 6.55556 19.3465C6.24692 19.6564 6.24692 19.6564 5.93827 19.6564H1.30864C1 19.6564 0.691364 19.6564 0.691364 19.3465C0.382722 19.0365 0.382721 19.0365 0.382721 18.7266V1.6788C0.382721 1.36884 0.382722 1.05888 0.691364 1.05888C1.00001 0.748923 1 0.748924 1.30864 0.748924H5.93827C6.24692 0.748924 6.55556 0.748923 6.55556 1.05888C6.55556 1.36884 6.55556 1.6788 6.55556 1.6788V2.60868C7.17284 1.98876 7.79013 1.36884 8.40741 1.05888C9.33334 0.748923 9.95062 0.438965 11.1852 0.438965C12.4198 0.438965 13.6543 0.748923 14.5803 1.05888C15.5062 1.36884 16.4321 2.29872 17.0494 3.2286C17.9753 2.29872 18.9012 1.6788 19.8272 1.05888C20.7531 0.438964 21.9877 0.438965 23.2222 0.438965C24.1482 0.438965 25.3827 0.748923 26.3086 1.05888C27.2346 1.36884 27.8519 1.98876 28.7778 2.60868C29.3951 3.2286 30.0124 4.15847 30.321 5.39831C30.6296 6.32819 30.9383 7.87798 30.9383 9.11782V19.0365H30.6296Z" fill="white"/>
</svg>
